Coordinates
version=1
nRows=17
nColumns=24
inDegrees=yes

Units are S.I. units (second, meters, Newtons, ...)
Angles are in degrees.

endheader
time	pelvis_tilt	pelvis_list	pelvis_rotation	pelvis_tx	pelvis_ty	pelvis_tz	hip_flexion_r	hip_adduction_r	hip_rotation_r	knee_angle_r	ankle_angle_r	subtalar_angle_r	mtp_angle_r	hip_flexion_l	hip_adduction_l	hip_rotation_l	knee_angle_l	ankle_angle_l	subtalar_angle_l	mtp_angle_l	lumbar_extension	lumbar_bending	lumbar_rotation
      3.81000000	     -8.53431794	     -8.50011082	      6.19252458	     -2.66163441	     -0.01486628	      0.43320365	     16.49223584	      9.82118287	     -4.23828574	    -12.34716060	     -4.81640257	     -4.74192890	      3.68703905	     20.65983041	     -8.21918938	      6.01712419	    -63.52856797	    -25.08758544	    -13.55513632	     20.80153437	      7.78797661	      7.74089145	     -3.05094787
      3.81500000	     -8.55806885	     -8.19071821	      6.15489360	     -2.65576571	     -0.01412852	      0.43387696	     15.93123459	      9.63260283	     -4.04481213	    -12.10286607	     -4.55590943	     -4.77923079	      3.73309794	     21.45425569	     -7.76315238	      6.02222782	    -63.85499204	    -24.57472174	    -14.12150350	     20.83919299	      7.77414823	      7.36766721	     -2.79187889
      3.82000000	     -8.58238220	     -7.82414040	      6.01776625	     -2.64991204	     -0.01334970	      0.43464235	     15.36217235	      9.40950755	     -3.70930345	    -11.86790344	     -4.31670424	     -4.83152735	      3.72521333	     22.18635040	     -7.28764426	      5.89836783	    -64.05935543	    -23.97114103	    -14.49975969	     20.90658978	      7.74080690	      6.95453220	     -2.40295073
      3.82500000	     -8.61510934	     -7.42584668	      5.77881636	     -2.64406205	     -0.01254504	      0.43552107	     14.79439695	      9.17572224	     -3.24528204	    -11.63300219	     -4.12446196	     -4.89081337	      3.66594413	     22.87040287	     -6.82596167	      5.66310087	    -64.14483861	    -23.24129507	    -14.64747754	     21.04807232	      7.70318239	      6.52741973	     -1.87061263
      3.83000000	     -8.66159646	     -6.99920317	      5.57960243	     -2.63827266	     -0.01176424	      0.43634588	     14.25205279	      8.89146136	     -2.83119818	    -11.40793570	     -3.92088033	     -4.96927601	      3.61116685	     23.55828560	     -6.31807996	      5.45614171	    -64.13091656	    -22.45328324	    -14.63864265	     21.26671527	      7.68055574	      6.06264426	     -1.42234743
      3.83500000	     -8.72149335	     -6.57433294	      5.35029824	     -2.63245239	     -0.01101107	      0.43718894	     13.70872861	      8.60622060	     -2.37690830	    -11.15281994	     -3.71797557	     -5.01952816	      3.56549835	     24.23542199	     -5.83568595	      5.20854465	    -64.02107819	    -21.62439242	    -14.46484921	     21.55526474	      7.68359852	      5.60736474	     -0.93318772
      3.84000000	     -8.79289432	     -6.12599983	      5.11883228	     -2.62670701	     -0.01028280	      0.43803482	     13.20039325	      8.28581244	     -1.96932530	    -10.92495530	     -3.51930926	     -5.05512252	      3.54693765	     24.90189395	     -5.32956200	      4.95105061	    -63.80807406	    -20.79437118	    -14.25136356	     21.86023791	      7.68884038	      5.12669598	     -0.46000497
      3.84500000	     -8.86565473	     -5.69049594	      4.86460192	     -2.62092875	     -0.00959751	      0.43886914	     12.67689761	      7.97356615	     -1.53383941	    -10.65994650	     -3.32157195	     -5.06360823	      3.54223524	     25.55157819	     -4.85576922	      4.66794032	    -63.51635427	    -19.96906807	    -13.93300841	     22.18636109	      7.71069812	      4.67580478	      0.03328020
      3.85000000	     -8.93673727	     -5.26144711	      4.60007146	     -2.61517713	     -0.00895732	      0.43970857	     12.16219628	      7.66128328	     -1.12767157	    -10.39950389	     -3.12847428	     -5.05154544	      3.56073031	     26.18126466	     -4.40046848	      4.37070314	    -63.13950593	    -19.16808300	    -13.61219324	     22.48865133	      7.73018681	      4.22924311	      0.52410029
      3.85500000	     -9.00409268	     -4.83952764	      4.33350577	     -2.60944359	     -0.00837524	      0.44053476	     11.65385670	      7.34828558	     -0.75554403	    -10.14560592	     -2.92902489	     -5.02441970	      3.59620166	     26.79067326	     -3.96084534	      4.06383327	    -62.68266923	    -18.40589463	    -13.32453102	     22.75283742	      7.74978114	      3.79526691	      0.99940224
      3.86000000	     -9.05810649	     -4.44512636	      4.04130795	     -2.60367598	     -0.00785026	      0.44133918	     11.11963382	      7.05952816	     -0.37139666	     -9.86128506	     -2.73178322	     -4.97002857	      3.63631998	     27.36972657	     -3.57189386	      3.73380629	    -62.16076141	    -17.66869372	    -13.01452064	     22.98986994	      7.76720441	      3.40569464	      1.49650875
      3.86500000	     -9.08935765	     -4.09124433	      3.72817931	     -2.59788430	     -0.00738409	      0.44215056	     10.54648379	      6.81036183	      0.04595426	     -9.54057149	     -2.54196654	     -4.88883107	      3.67146331	     27.91495454	     -3.24638012	      3.39978099	    -61.58614073	    -16.96114054	    -12.68657282	     23.17192174	      7.77245845	      3.06793044	      2.00768796
      3.87000000	     -9.11984622	     -3.74650681	      3.43228771	     -2.59211121	     -0.00700962	      0.44291920	      9.99154654	      6.56037078	      0.40212683	     -9.24627468	     -2.33789036	     -4.82810746	      3.69660287	     28.44660374	     -2.92922524	      3.07004284	    -60.94331566	    -16.28613714	    -12.46183520	     23.28237588	      7.77995325	      2.73592941	      2.46846515
      3.87500000	     -9.13035155	     -3.43620804	      3.10810599	     -2.58631267	     -0.00669824	      0.44366622	      9.40292860	      6.34186904	      0.78470808	     -8.92179552	     -2.13706428	     -4.74084397	      3.70707678	     28.94408352	     -2.66991107	      2.72686021	    -60.25114856	    -15.64176456	    -12.24314496	     23.33325900	      7.77694704	      2.45646214	      2.94952611
      3.88000000	     -9.10078741	     -3.17496507	      2.76748003	     -2.58050550	     -0.00644626	      0.44440826	      8.76197285	      6.17166919	      1.21801125	     -8.57654595	     -1.94075144	     -4.64489820	      3.68620789	     29.39554075	     -2.48720201	      2.37159582	    -59.52651530	    -15.00547248	    -12.01958616	     23.27317949	      7.73620612	      2.23912558	      3.45067945
      3.88500000	     -9.06801034	     -2.92828862	      2.44466174	     -2.57470227	     -0.00628566	      0.44509796	      8.12595588	      6.00602748	      1.62546029	     -8.24362826	     -1.73208131	     -4.58172357	      3.63811036	     29.83079168	     -2.31545412	      2.03205312	    -58.74976524	    -14.38052463	    -11.86525791	     23.09301907	      7.69627364	      2.03779308	      3.89279701
      3.89000000	     -9.08239139	     -2.68193806	      2.16009800	     -2.56889654	     -0.00623249	      0.44572531	      7.55247395	      5.82397735	      1.93518774	     -7.92324093	     -1.52246478	     -4.51250614	      3.61144866	     30.30674157	     -2.13175378	      1.72144718	    -57.90163082	    -13.86679843	    -11.80855993	     22.94580077	      7.71463521	      1.82592120	      4.28545074
